<svg id="Layer_1" data-name="Layer 1" xmlns="http://www.w3.org/2000/svg" xmlns:xlink="http://www.w3.org/1999/xlink" viewBox="0 0 1440 900"><defs><style>.cls-1{fill:url(#linear-gradient);}.cls-2{fill:#f2f2f2;}</style><linearGradient id="linear-gradient" y1="450" x2="1440" y2="450" gradientUnits="userSpaceOnUse"><stop offset="0" stop-color="#522aff"/><stop offset="0.33" stop-color="#4921ff"/><stop offset="0.87" stop-color="#3107ff"/><stop offset="1" stop-color="#2a00ff"/></linearGradient></defs><rect class="cls-1" width="1440" height="900"/><path class="cls-2" d="M965.2,547.06c-1.39-1.21-2.9-3.27-2.9-4.94,0-29.93-10.46-56.66-26.09-81.4-5.14-8.15-5.41-13.55-.06-21.76,13.69-21,23.36-44.06,25.29-69.4,1.36-26.89,30.21-31.89,11-64.48A35.24,35.24,0,0,0,934,290.49a9.11,9.11,0,0,1-8.54-1.45c-28-19.22-62.11-22.52-95.09-21.13-3.85.13-5.81-.89-7.59-4.4-18.9-38-49.95-74.09-93.67-81.27H710.29c-43.79,8.19-74.58,42.22-93.41,80.74-1.92,3.8-4,5.14-8.33,4.9A158.33,158.33,0,0,0,513,289.42c-2.1,1-4.9,1.62-7,1.08-16.32-4.1-33,3-40.83,17.7a35.73,35.73,0,0,0,8.59,44.07c1.52,1.31,3.28,3.48,3.28,5.25,0,32.23,12.91,61.61,30.06,88.12,2.08,3,2.11,5.1.07,8.22-17.72,25.92-28.75,55.52-30.08,87a10.22,10.22,0,0,1-2.82,6c-13.1,11.36-17,29-9.33,44,7.75,15.16,24.49,22.34,41.56,18a7.78,7.78,0,0,1,5.65.74c28.61,20,63.5,23.6,97.4,22.08,3.48-.09,5.23.83,6.81,4,18.93,38.17,50,74.44,93.93,81.65,52.77,5,89.73-38.46,112.19-80.84,2.24-3.72,4.29-4.9,8.48-4.65,33.36,2.41,67-3.38,95.49-21.66,1.92-1,4.56-1.69,6.55-1.19,16.79,4.15,33.39-3,41.17-17.93S978.27,558.46,965.2,547.06Zm-4.85-221.93c-.35,23.33-35.28,22.83-35.6-.12C924.86,301.73,960.51,301.5,960.35,325.13Zm-45.86-22.35c-18.54,23.84-.38,59.06,29.92,58-2.07,26.68-10.63,50.82-25.82,73.36-92.19-105.92-40.71-13.65-85.26-148.76C862.16,284.74,889.35,287.49,914.49,302.78Zm-54.7,95a353,353,0,0,1,48.06,51.95A344.48,344.48,0,0,1,859.78,502,548.78,548.78,0,0,0,859.79,397.76ZM839.87,515.87c-20.21,23.68-93.11,66.76-123.7,70.8-40.76-18.75-86.92-38.1-116.72-71.54-2-21.81-3.82-43.65-5.66-65.47,1.85-21.86,3.62-43.53,5.65-65.17,29.83-33.56,76.24-53,117.17-71.73,43.86,10.16,83.67,39.55,120.26,65.91C849.8,421.86,844.4,470.93,839.87,515.87ZM815.09,289.53c8.18,20.79,16.78,42.57,19.1,64.67-27.81-20.07-57.23-37-88.44-52.36,21.1-6.82,42.8-11,64.67-14.45C811.87,287.15,814.58,288.32,815.09,289.53ZM805.22,269c-138,31.7-38.46,25-172.52.58C680.42,179,758.92,176.15,805.22,269ZM621.87,294.92c3.19-8.08,3.33-8.69,11.55-7,20.49,4.79,41,8.49,61.15,14.66a509.9,509.9,0,0,0-89,51.29l-1.9-1C609.87,333.62,614.69,313.85,621.87,294.92ZM497,307.14c23.3.56,22.83,35.35-.2,35.66C473.45,342.75,473.52,306.88,497,307.14Zm-1.54,54c31.5-1,46.88-33.38,29.94-57.67C540,290.08,581.1,283.09,605.82,286c-40.57,129.11,4,46.63-84.81,147.53C508.53,420.17,494,379.09,495.41,361.16ZM579.6,501.78a342,342,0,0,1-48.13-52,346.7,346.7,0,0,1,48.06-52.05A537.19,537.19,0,0,0,579.6,501.78ZM479,574.68c.11-23.66,35.67-23.08,35.61.2C514.08,597.87,479.09,597.93,479,574.68Zm46.11,21.74c18.32-23.52-.17-58.91-30.18-57.64a149.36,149.36,0,0,1,25.76-73.23c92,104.51,41.28,15.48,85.21,148C582.47,616.38,543.86,610.55,525.09,596.42Zm99.2,13.67c-8.14-20.8-16.79-42.59-19.07-64.69a506.77,506.77,0,0,0,88.33,51.1c0,.67,0,1.33,0,2C679.84,600.07,632.55,617.16,624.29,610.09ZM634,629.76c138.3-27.24,32.64-27.73,171.09,0C764.27,721.3,676,722,634,629.76Zm175.88-17.45c-21.87-5.55-43.63-8.45-65.23-15.27a616,616,0,0,0,90.52-50.87C832.56,553.94,818.37,618.25,809.84,612.31Zm104.42-15.39c-24.82,15.22-52.17,17.87-81,17.29,38.18-126,.1-51.45,85.55-148.44a148.31,148.31,0,0,1,25.66,72.68C913.52,539.32,896.4,570.87,914.26,596.92Zm10.5-22.45c.47-23,35.39-23.2,35.59.11C960.38,598.2,924.69,597.74,924.76,574.47Z"/><path class="cls-2" d="M666.07,394.72Q644.61,446.5,623,498.22c-2.53,6.06-.9,11.09,4,13.22,14.72,4.73,16.82-22.1,22.69-31.29,3.24-7.15,18.33-2,25.26-3.52,7.21,1.57,22.28-3.86,25.62,3.83,5.65,9.07,8,35.63,22.38,31,5.25-2.13,6.81-7.06,4.08-13.64q-21.4-51.53-42.87-103C681.51,385.22,668.83,385.1,666.07,394.72Zm-7.17,63.67c5.39-12.93,10.6-25.42,16.2-38.87l16.16,38.87Z"/><path class="cls-2" d="M737.54,503.32c0,5.34,4.11,8.94,10.62,9q25.07.12,50.12,0c6.65,0,10.48-3.52,10.42-9.08,0-12.37-17.64-8-26.2-8.73V405.12c8.8-.67,26.41,3.5,26.21-9-.08-5.48-3.94-8.79-10.69-8.81q-24.79-.1-49.59,0c-6.81,0-11.06,3.73-10.89,9.22.49,12.13,17.83,7.87,26.56,8.59v89.37C755.16,495.21,737.85,490.87,737.54,503.32Z"/></svg>