<svg id="Layer_1" data-name="Layer 1" xmlns="http://www.w3.org/2000/svg" xmlns:xlink="http://www.w3.org/1999/xlink" viewBox="0 0 1440 900"><defs><style>.cls-1{fill:url(#linear-gradient);}.cls-2{fill:#019afe;}.cls-3{fill:#54525e;}.cls-4{fill:#018be5;}.cls-5{fill:#fe4924;}.cls-6{fill:#5d5b68;}.cls-7{fill:#ced1d6;}.cls-8{fill:#59bcfc;}.cls-9{fill:#fdc101;}.cls-10{fill:#e4ae00;}.cls-11{fill:#e5e8ed;}.cls-12{fill:#a9b1bc;}.cls-13{fill:#fafcfe;}.cls-14{fill:#e54120;}.cls-15{fill:#fe4823;}.cls-16{fill:#e4e4e4;}.cls-17{fill:#fefefe;}</style><linearGradient id="linear-gradient" y1="450" x2="1440" y2="450" gradientUnits="userSpaceOnUse"><stop offset="0" stop-color="#522aff"/><stop offset="0.33" stop-color="#4921ff"/><stop offset="0.87" stop-color="#3107ff"/><stop offset="1" stop-color="#2a00ff"/></linearGradient></defs><rect class="cls-1" width="1440" height="900"/><path class="cls-2" d="M480.28,304.55H614.46c-.48,21.21,18.2,38.38,39.52,38.2,65.41-.53,130.83-.11,196.24-.32,6,0,7.29,1.75,7.47,7.56.69,22.13-3.74,44.79,6,66.09q-51,.1-102,.23c-14.13,0-28.25.18-42.38.28-12.48-.82-21.93,6.27-22.17,17.46-.32,15.17,0,30.35.13,45.52l0,1.24c-.09,2.67-.26,5.34-.26,8q-.12,48.45-.2,96.91a2.08,2.08,0,0,0-1,.24l-30.67,0-2.58-.42c-12.62-7.11-25.89-13-38.2-20.74-28.5-17.9-53-40.35-74.71-65.9-4.4-5.18-9.9-9.89-11.64-17,.75-1.89,1.41-3.83,2.27-5.67q23.22-50,46.47-99.94c1.56-3.35,3.21-6.66,4.56-10.1,2.06-5.25.15-10.19-4.57-12.45s-9.68-.69-12.57,4.3c-1.13,1.95-2,4.07-2.91,6.11q-23,49.08-45.91,98.16c-2-.22-2.57-2-3.33-3.29A292,292,0,0,1,507.35,431c-2.9-6.44-4.57-13.44-8.66-19.34,3.52-3.68,7-7.39,10.57-11,5.68-5.83,6.46-11.13,2.22-15.51s-9.66-3.88-15.45,1.67c-1,1-2.15,1.85-3.23,2.77a3.76,3.76,0,0,1-1.47-2.56C484.22,360,479.72,332.59,480.28,304.55ZM645,424.38a11.89,11.89,0,0,0-3.94-8.07c-10.05-10-20-20.07-30.06-30-5.13-5.09-10.34-5.53-14.58-1.48s-3.87,9.88,1.26,15.11c6.9,7,13.75,14.13,20.92,20.88,3.06,2.88,2.65,4.54-.15,7.21-7.13,6.79-14,13.85-20.92,20.88-4.9,5-5.35,10.58-1.35,14.63s9.83,3.77,14.68-1c10.08-10,20-20,30.06-30A12.87,12.87,0,0,0,645,424.38Z"/><path class="cls-3" d="M696.88,585.73q.09-48.45.2-96.91c0-2.67.17-5.34.25-8q22.41,0,44.81,0c3,0,5.89-.23,5.59,4.25-.75,11.07,1.06,22,2.46,32.88-10.9.57-14.67,3.06-14.71,10.7q-.19,43.77,0,87.54c0,6.4,3.69,10.15,9.9,10.17,19.27.08,38.54-.09,57.81-.16l2.42.48c0,2.11,1.57,3.27,2.86,4.56A226.93,226.93,0,0,0,864,672.38c32.21,16.73,66.64,24.32,102.8,24.51,16.43.09,32.86,0,49.29,0,.07,10.28.34,20.57.15,30.85s-7.34,17.8-17.51,18.93a63.63,63.63,0,0,1-6.77.24q-135.51,0-271,.1a39.21,39.21,0,0,1-13.9-2c-7.55-5.19-10.8-12.29-10.1-21.49.39-5.08-.05-10.21-.11-15.32l0-39.78q0-35.79,0-71.58v-11.1Zm84.55,91.33q21.51,0,43,0c7.89,0,12.42-3.54,12.49-9.57s-4.49-9.79-12.29-9.8q-43.35-.06-86.7,0c-7.69,0-12.38,3.94-12.26,9.94.13,5.78,4.66,9.4,12.06,9.42C752.32,677.1,766.88,677.06,781.43,677.06Zm-23.9,42.27c7,0,14,.1,20.92,0,6.62-.11,10.39-3.75,10.28-9.61-.11-5.58-3.82-9.15-10.09-9.19q-21.23-.18-42.46,0c-6.35,0-10.61,4.12-10.47,9.61.14,5.26,4.25,9.07,10.28,9.18C743.17,719.43,750.35,719.33,757.53,719.33Zm150.38,0c7,0,14,.1,20.93,0,6.64-.12,10.33-3.74,10.18-9.68-.14-5.49-3.94-9.08-10.17-9.13q-21.23-.15-42.45,0c-6.34,0-10.57,4.19-10.37,9.69.18,5.27,4.28,9,10.35,9.1C893.55,719.43,900.74,719.33,907.91,719.33Z"/><path class="cls-4" d="M480.28,304.55c-.56,28,3.94,55.4,11.05,82.41a3.73,3.73,0,0,0,1.48,2.56c-8.74,8.91-17.52,17.79-26.2,26.76-5.23,5.41-5.36,10.41-.29,15.59q15.3,15.57,30.84,30.9c4.52,4.46,10.37,4.66,14.19.84s3.74-9.52-.71-14.24-9-8.95-13.4-13.56c-3.64-3.82-10.36-7.09-10.2-11.52.18-4.8,6.9-8,10.62-12.05a4.21,4.21,0,0,1,1-.62c4.09,5.9,5.76,12.9,8.66,19.34A292,292,0,0,0,522.12,459c.76,1.3,1.37,3.07,3.33,3.29-3,6.7-6.29,13.32-9.07,20.14-2.13,5.23,0,10.41,4.6,12.51s9.73.41,12.57-4.44c1.64-2.81,3.05-5.75,4.56-8.62,1.74,7.12,7.24,11.83,11.64,17,21.71,25.55,46.21,48,74.71,65.9,12.31,7.73,25.58,13.63,38.2,20.74-1,.07-2,.19-3.06.19q-115.41,0-230.81,0c-1.64,0-3.27-.21-4.9-.32q0-129.15,0-258.3,0-22.83,22.58-22.84C457.73,304.3,469,304.46,480.28,304.55Z"/><path class="cls-5" d="M749.68,304c-5-1.95-7.18-5.57-6.85-11,.28-4.72.2-9.47,0-14.19-.24-6,2.73-9.07,8.34-10.32,6.8-1.52,13.5-3.48,20.32-4.85,3.09-.62,4.57-2,5.3-5a87.05,87.05,0,0,1,9.64-23.25,5.61,5.61,0,0,0-.16-6.68c-4-6.24-7.59-12.69-11.5-19-2.84-4.54-2.38-8.45,1.48-12.14s7.65-7.47,11.36-11.31,7.66-4.25,12.16-1.47c6.1,3.79,12.38,7.3,18.37,11.25,2.78,1.82,4.88,2,7.76.19a76.34,76.34,0,0,1,22-9.21c3.55-.9,5-2.75,5.73-6.11,1.47-6.82,3.41-13.54,4.86-20.36,1.13-5.32,4.24-7.7,9.51-7.66,5.55,0,11.09,0,16.64,0,4.71,0,7.64,2.28,8.77,7,1.75,7.39,3.84,14.7,5.46,22.12.61,2.84,1.9,4.16,4.65,4.83a84.55,84.55,0,0,1,23.2,9.63c2.7,1.61,4.72,1.38,7.25-.25,5.86-3.77,12-7.16,17.82-11,4.88-3.17,9.06-3,13.13,1.38,3.63,3.91,7.52,7.59,11.3,11.36,3.37,3.37,3.87,7,1.36,11.15-3.86,6.31-7.53,12.73-11.54,18.94-1.79,2.77-1.93,5-.16,7.84a78.24,78.24,0,0,1,9.19,22.09c.89,3.56,2.61,5,6.12,5.66,6.83,1.33,13.54,3.25,20.31,4.89,5.11,1.23,7.65,4.23,7.4,9.69-.24,5.13-.21,10.29,0,15.43.22,5.67-2.41,8.86-7.77,10.13-7.18,1.71-14.31,3.61-21.52,5.16a5.09,5.09,0,0,0-4.45,4.25,92.82,92.82,0,0,1-9.9,23.8c-1.49,2.51-1.18,4.38.29,6.7,3.85,6.07,7.37,12.35,11.22,18.41,3,4.71,2.72,8.78-1.36,12.69-3.86,3.69-7.6,7.51-11.34,11.33-3.53,3.6-7.32,4.1-11.63,1.41-6.27-3.91-12.68-7.59-18.88-11.6-2.6-1.68-4.67-1.68-7.3-.08-6.14,3.75-12.67,7-19.69,8.45-6.16,1.24-8.68,4.5-8.89,10.32l-1.35-.22q.23-28.32.44-56.66c29.34-11.09,43.2-46.24,29.65-75.18a55.64,55.64,0,0,0-77.74-25c-17.8,10-35,33.8-25.73,66.41Z"/><path class="cls-6" d="M1016.12,696.92c-16.43,0-32.86.06-49.29,0-36.16-.19-70.59-7.78-102.8-24.51a226.93,226.93,0,0,1-55.55-41.16c-1.29-1.29-2.84-2.45-2.86-4.56,2.87-.07,5.74-.2,8.61-.2l135.56-.21c5.91.07,11.83.34,17.73.15,6.78-.22,9.8-3.73,10.12-11.06q.17-38.36.3-76.72c0-2.84-.39-5.68-.6-8.53.78-6.83-2.75-11.61-9.41-11.92-5.63-.26-11.3.19-17,.33-1.63-.13-3.26-.37-4.89-.37q-89.3,0-178.61,0c-1.63,0-3.26.24-4.89.36l-12.39-.56c-1.4-10.92-3.21-21.81-2.46-32.88.3-4.48-2.58-4.26-5.59-4.25q-22.39,0-44.81,0c0-.41,0-.82,0-1.24l318.74.08c.1,1.64.27,3.28.27,4.92q0,104.32,0,208.66C1016.33,694.46,1016.19,695.69,1016.12,696.92Zm-84.54-18.49q21.87,0,43.73,0c7.66,0,11.79-3.34,11.83-9.4s-4-9.5-11.66-9.52q-43.74-.06-87.47,0c-7.5,0-11.94,3.56-12,9.36s4.42,9.54,11.82,9.55C902.43,678.45,917,678.42,931.58,678.43Z"/><path class="cls-7" d="M423.89,585.44c1.63.11,3.26.32,4.9.32q115.41,0,230.81,0c1,0,2-.12,3.06-.19l2.58.42c10.32,4.26,20.25,9.65,31.62,10.84q0,35.79,0,71.58l-106.82.09-141.7-.06c-17,0-24.75-7.84-24.71-25Q423.71,614.44,423.89,585.44Zm246,41.82a9.7,9.7,0,1,0-10.13,9.34A9.58,9.58,0,0,0,669.88,627.26Z"/><path class="cls-8" d="M896.82,337.88q-.21,28.33-.44,56.66a5.32,5.32,0,0,0,.2,6.15q0,7.65,0,15.3l-32.85.09c-9.79-21.3-5.36-44-6-66.09-.18-5.81-1.48-7.58-7.47-7.56-65.41.21-130.83-.21-196.24.32-21.32.18-40-17-39.52-38.2l69.45-.28,65.77-.25,73.32.05c17.87.07,35.73.08,53.59.24,10,.09,17,6,19.29,15.75C897.29,326,896,332,896.82,337.88Z"/><path class="cls-9" d="M863.74,416.08l32.85-.09q33.17.17,66.34.33c11.47,0,22.94-.15,34.41.1a19,19,0,0,1,18.92,18.75c.25,7.79-.06,15.59-.12,23.38q-126.23,0-252.46,0a44.2,44.2,0,0,1-18.48-3.67c3.45-6.76,3.09-11.39-1.57-14.51-5.26-3.52-9.94-1.93-14,2.35-7.81-7-9.5-16.35-10.24-26.1,14.13-.1,28.25-.24,42.38-.28Q812.74,416.16,863.74,416.08Zm-91.35,22.49a9.47,9.47,0,1,0,.4,18.94,9.47,9.47,0,1,0-.4-18.94Zm25.24,8.6a9.59,9.59,0,0,0,19.1,1.71,9.31,9.31,0,0,0-8.36-10.27A9.43,9.43,0,0,0,797.63,447.17Z"/><path class="cls-10" d="M719.36,416.59c.74,9.75,2.43,19.13,10.24,26.1-2,5-1.9,9.63,2.75,13,4.37,3.22,8.74,2,12.85-.88a44.2,44.2,0,0,0,18.48,3.67q126.24.11,252.46,0l-.09,21.1-318.74-.08c-.07-15.17-.44-30.35-.12-45.52C697.43,422.86,706.88,415.77,719.36,416.59Z"/><path class="cls-11" d="M696.85,708.19c.06,5.11.5,10.24.11,15.32-.7,9.2,2.55,16.3,10.1,21.49-1.76,2.14-4.19,1.28-6.34,1.28-54.36.05-108.73,0-163.1.16-5.36,0-7.52-1.28-6.89-6.85.46-4.06-.27-8.26.25-12.31,1.59-12.42,9.33-19.1,22.09-19.22,12.31-.12,24.62,0,36.93,0Z"/><path class="cls-12" d="M696.85,708.19,590,708l.06-39.51,106.82-.09Z"/><path class="cls-12" d="M896.58,400.69a5.32,5.32,0,0,1-.2-6.15l1.35.22C897.35,396.74,897,398.72,896.58,400.69Z"/><path class="cls-13" d="M538.11,481.92c-1.51,2.87-2.92,5.81-4.56,8.62-2.84,4.85-7.91,6.58-12.57,4.44s-6.73-7.28-4.6-12.51c2.78-6.82,6-13.44,9.07-20.14q22.95-49.08,45.91-98.16c.95-2,1.78-4.16,2.91-6.11,2.89-5,7.78-6.6,12.57-4.3s6.63,7.2,4.57,12.45c-1.35,3.44-3,6.75-4.56,10.1q-23.24,50-46.47,99.94C539.52,478.09,538.86,480,538.11,481.92Z"/><path class="cls-13" d="M645,424.38a12.87,12.87,0,0,1-4.08,8.06c-10,10-20,20.09-30.06,30-4.85,4.79-10.67,5.07-14.68,1s-3.55-9.63,1.35-14.63c6.91-7,13.79-14.09,20.92-20.88,2.8-2.67,3.21-4.33.15-7.21-7.17-6.75-14-13.85-20.92-20.88-5.13-5.23-5.55-11-1.26-15.11s9.45-3.61,14.58,1.48c10.06,10,20,20.06,30.06,30A11.89,11.89,0,0,1,645,424.38Z"/><path class="cls-13" d="M498.69,411.62a4.21,4.21,0,0,0-1,.62c-3.72,4-10.44,7.25-10.62,12.05-.16,4.43,6.56,7.7,10.2,11.52,4.37,4.61,9,8.93,13.4,13.56s4.62,10.33.71,14.24-9.67,3.62-14.19-.84q-15.54-15.33-30.84-30.9c-5.07-5.18-4.94-10.18.29-15.59,8.68-9,17.46-17.85,26.2-26.76,1.07-.92,2.2-1.79,3.22-2.77,5.79-5.55,11.12-6.14,15.45-1.67s3.46,9.68-2.22,15.51C505.7,404.23,502.21,407.94,498.69,411.62Z"/><path class="cls-11" d="M696.86,596.83c-11.37-1.19-21.3-6.58-31.62-10.84l30.67,0,1,1Z"/><path class="cls-7" d="M696.87,587l-1-1a2.08,2.08,0,0,1,1-.24C696.88,586.16,696.87,586.59,696.87,587Z"/><path class="cls-14" d="M951,518.5c5.66-.14,11.33-.59,17-.33,6.66.31,10.19,5.09,9.41,11.93-7.79,1.33-14.43,5.57-21.5,8.67q-35.65,15.63-71.17,31.54c-1.14.5-2.92.64-2.86,2.6,18.27,8.26,36.47,16.6,54.77,24.72,13.62,6,27.37,11.82,41.06,17.71-.32,7.33-3.34,10.84-10.12,11.06-5.9.19-11.82-.08-17.73-.15-2.14-4.33-6.78-5-10.5-6.67-24.56-11.11-49.32-21.79-73.85-33-6-2.74-11.36-4.34-17.14,0-1.11.83-2.62,1.11-3.92,1.69q-24.09,10.66-48.19,21.35c-2.85,1.26-4.15,2.08-1.63,5.62,2.71,3.81,7.2,6.2,8.64,10.94-19.27.07-38.54.24-57.81.16-6.21,0-9.88-3.77-9.9-10.17q-.19-43.77,0-87.54c0-7.64,3.81-10.13,14.71-10.7l12.39.56c.75,2.62,3.3,2.89,5.24,3.78,6.48,3,13.06,5.8,19.6,8.7q32.49,14.41,65,28.88a9.32,9.32,0,0,0,8.21.25c26.29-11.78,52.67-23.35,78.86-35.36C943.35,523,948.3,522.69,951,518.5ZM756.33,538.85l-.51-.28.51.28c.07,1.64-.25,3.41.25,4.9,5.8,17.35,12.84,34.13,22.62,49.67,1.45,2.31,2.72,1.71,4.53.89,11.38-5.13,22.84-10.09,34.16-15.36,4.46-2.08,9.7-2.87,13.61-7.24-11.47-5.16-22.35-10.33-33.45-15C784.09,550.88,770.75,543.61,756.33,538.85Z"/><path class="cls-15" d="M803.2,626.18c-1.44-4.74-5.93-7.13-8.64-10.94-2.52-3.54-1.22-4.36,1.63-5.62q24.1-10.65,48.19-21.35c1.3-.58,2.81-.86,3.92-1.69,5.78-4.32,11.14-2.72,17.14,0,24.53,11.19,49.29,21.87,73.85,33,3.72,1.68,8.36,2.34,10.5,6.67l-135.56.21c-2.87,0-5.74.13-8.61.2Z"/><path class="cls-16" d="M781.43,677.06c-14.55,0-29.11,0-43.66,0-7.4,0-11.93-3.64-12.06-9.42-.12-6,4.57-9.92,12.26-9.94q43.35-.06,86.7,0c7.8,0,12.37,3.75,12.29,9.8s-4.6,9.55-12.49,9.57Q802.95,677.1,781.43,677.06Z"/><path class="cls-16" d="M757.53,719.33c-7.18,0-14.36.1-21.54,0-6-.11-10.14-3.92-10.28-9.18-.14-5.49,4.12-9.57,10.47-9.61q21.24-.16,42.46,0c6.27,0,10,3.61,10.09,9.19.11,5.86-3.66,9.5-10.28,9.61C771.48,719.43,764.51,719.33,757.53,719.33Z"/><path class="cls-16" d="M907.91,719.33c-7.17,0-14.36.1-21.53,0-6.07-.1-10.17-3.83-10.35-9.1-.2-5.5,4-9.64,10.37-9.69q21.23-.16,42.45,0c6.23,0,10,3.64,10.17,9.13.15,5.94-3.54,9.56-10.18,9.68C921.86,719.43,914.89,719.33,907.91,719.33Z"/><path class="cls-15" d="M951,518.5c-2.67,4.19-7.62,4.45-11.52,6.24-26.19,12-52.57,23.58-78.86,35.36a9.32,9.32,0,0,1-8.21-.25q-32.45-14.52-65-28.88c-6.54-2.9-13.12-5.68-19.6-8.7-1.94-.89-4.49-1.16-5.24-3.78,1.63-.12,3.26-.36,4.89-.36q89.31,0,178.61,0C947.71,518.13,949.34,518.37,951,518.5Z"/><path class="cls-15" d="M977.64,615.34c-13.69-5.89-27.44-11.66-41.06-17.71-18.3-8.12-36.5-16.46-54.77-24.72-.06-2,1.72-2.1,2.86-2.6q35.55-15.85,71.17-31.54c7.07-3.1,13.71-7.34,21.5-8.67.21,2.84.61,5.68.6,8.52Q977.85,577,977.64,615.34Z"/><path class="cls-17" d="M931.58,678.43c-14.58,0-29.15,0-43.73,0-7.4,0-11.87-3.68-11.82-9.55s4.48-9.35,12-9.36q43.74,0,87.47,0c7.7,0,11.71,3.39,11.66,9.52s-4.17,9.38-11.83,9.4Q953.44,678.47,931.58,678.43Z"/><path class="cls-2" d="M669.88,627.26a9.7,9.7,0,1,1-9.29-9.56A9.63,9.63,0,0,1,669.88,627.26Z"/><path class="cls-17" d="M745.2,454.85c-4.11,2.92-8.48,4.1-12.85.88-4.65-3.41-4.76-8.07-2.75-13,4.09-4.28,8.77-5.87,14-2.35C748.29,443.46,748.65,448.09,745.2,454.85Z"/><path class="cls-17" d="M772.39,438.57a9.47,9.47,0,1,1,.4,18.94,9.47,9.47,0,1,1-.4-18.94Z"/><path class="cls-17" d="M797.63,447.17a9.43,9.43,0,0,1,10.74-8.56,9.31,9.31,0,0,1,8.36,10.27,9.59,9.59,0,0,1-19.1-1.71Z"/><path class="cls-15" d="M756.33,538.85c14.42,4.76,27.76,12,41.72,17.88,11.1,4.65,22,9.82,33.45,15-3.91,4.37-9.15,5.16-13.61,7.24-11.32,5.27-22.78,10.23-34.16,15.36-1.81.82-3.08,1.42-4.53-.89-9.78-15.54-16.82-32.32-22.62-49.67-.5-1.49-.18-3.26-.25-4.9Z"/><path class="cls-15" d="M756.33,538.85l-.51-.28.51.28Z"/></svg>