<svg id="Layer_1" data-name="Layer 1" xmlns="http://www.w3.org/2000/svg" xmlns:xlink="http://www.w3.org/1999/xlink" viewBox="0 0 1440 900"><defs><style>.cls-1{fill:url(#linear-gradient);}.cls-2{fill:#fedf5d;}.cls-2,.cls-3{stroke:#f2f2f2;stroke-miterlimit:10;stroke-width:7px;}.cls-3{fill:#3f7cac;}</style><linearGradient id="linear-gradient" y1="450" x2="1440" y2="450" gradientUnits="userSpaceOnUse"><stop offset="0" stop-color="#522aff"/><stop offset="0.33" stop-color="#4921ff"/><stop offset="0.87" stop-color="#3107ff"/><stop offset="1" stop-color="#2a00ff"/></linearGradient></defs><rect class="cls-1" width="1440" height="900"/><path class="cls-2" d="M702.93,699c-8.66-1.6-17.37-2.94-25.95-4.84-19.66-4.35-38.71-10.34-54.65-23.37-13.21-10.79-20.78-24.29-20.64-41.94.28-37.6,0-75.2.19-112.8a60.06,60.06,0,0,1,60.28-60c38.65,0,77.31-.32,116,.06,31.82.32,60.77-21.41,71.11-51.36A73.38,73.38,0,0,0,853.46,380c-.13-15.72.08-31.44-.11-47.16,0-3.65,1-4.69,4.64-4.63,14.07.21,28.15-.08,42.21.15,21,.35,35.19,10.95,45.14,29.07,8.2,14.92,11.42,31.15,15.2,47.39,2.83,12.15,3.54,24.44,4.72,36.76,2.12,22.12-.79,43.32-7.45,64.42-4.21,13.32-8.78,26.35-15.91,38.37-10,17-25.09,25.1-44.64,25.1q-85.39,0-170.8-.05c-6.18,0-6.18,0-6.18,6.36,0,8.45,0,8.45,8.4,8.45,34.94,0,69.88,0,104.81-.14,4.29,0,5.5,1.06,5.39,5.38-.31,11.82-.43,23.67,0,35.48.81,24.34-10.56,41.35-31,53.15-17.19,9.95-36.11,14.65-55.42,18.07-5.82,1-11.66,1.89-17.5,2.83Zm105.82-62c0-12.4-9.77-22.48-21.84-22.54s-22.48,10.26-22.5,22.61c0,12.14,10.61,22.83,22.57,22.67S808.75,649.52,808.75,637.05Z"/><path class="cls-3" d="M742.73,201c7.61,2.16,15.51,2,23.27,2.84,19.48,2.2,37.81,7.07,52.73,20.74,12.82,11.73,19.86,26.22,19.92,43.72q.18,55.92,0,111.83c-.14,34.83-26.55,61.06-61.3,61.09q-58.23,0-116.46,0c-17,0-32.42,5-45.58,15.59-18.59,14.94-28.11,34.8-28.6,58.69-.33,16.36-.18,32.74,0,49.1.06,3.93-1.15,4.92-4.91,4.84-10.67-.24-21.35-.32-32-.06-28.41.7-47.46-13.05-59.24-38.14C483.86,516.87,481,501.4,478.15,486c-6.92-37-3.46-73.31,8.42-108.7,10-29.72,36.06-48.58,67.33-48.88,53.22-.52,106.43-.26,159.65-.35,7.67,0,6.58.55,6.63-6.86.05-8.28,0-8.28-8.48-8.28-34.94,0-69.88-.12-104.82.07-4.33,0-5.38-1.15-5.29-5.38.32-16-.07-32.1.38-48.13.73-25.83,11.51-39.8,36.13-47.9,17.11-5.62,34.86-7.59,52.62-9.5,1.5-.17,3.29.64,4.44-1.06Zm-89.15,81.71c12.26-.1,22.31-10.59,22.08-23s-10.58-22.78-22.84-22.27c-13.44.56-21.86,9.34-21.73,23.1C631.22,274.94,642.82,282.7,653.58,282.71Z"/></svg>