<svg id="Layer_1" data-name="Layer 1" xmlns="http://www.w3.org/2000/svg" xmlns:xlink="http://www.w3.org/1999/xlink" viewBox="0 0 1440 900"><defs><style>.cls-1{fill:url(#linear-gradient);}.cls-2{fill:#fff;}</style><linearGradient id="linear-gradient" y1="450" x2="1440" y2="450" gradientUnits="userSpaceOnUse"><stop offset="0" stop-color="#3a4c7a"/><stop offset="0.19" stop-color="#384483"/><stop offset="0.5" stop-color="#342e9d"/><stop offset="0.9" stop-color="#2c0ac6"/><stop offset="1" stop-color="#2a00d1"/></linearGradient></defs><rect class="cls-1" width="1440" height="900"/><path class="cls-2" d="M809.34,449.5c0,25.44-.35,50.89.15,76.32.25,12.79-5.35,21.45-15.72,27.73-13,7.9-27.51,11.47-42.46,13.47-29.39,3.94-58.5,3.3-87-5.71a90.65,90.65,0,0,1-13.22-5.47C638,549.33,631.52,539.51,631.71,524c.64-50.24.5-100.5.07-150.75-.12-13.37,5.65-22.14,16.55-28.47,12.82-7.44,27-10.87,41.42-12.86,29-4,57.75-3.28,85.8,5.71a99.25,99.25,0,0,1,22.24,10.88c8,5.08,11.74,12.9,11.64,22.8C809.16,397.37,809.34,423.44,809.34,449.5ZM652.26,503v15c0,16,1.32,17.89,16.44,23.26,1.37.49,2.77.89,4.16,1.29,27.11,7.88,54.64,8.25,82.09,3,10.21-2,19.92-6.72,29.64-10.74,2-.83,4.13-4,4.26-6.18.5-8.47.2-17,.2-25.83C743.35,519.16,698.11,519.38,652.26,503Zm0-54v15.25c0,15.59.59,16.45,15.27,22.19,1.15.45,2.34.83,3.53,1.2,23.46,7.36,47.52,8.59,71.62,5.37,12.42-1.66,24.61-5.6,36.63-9.41,3.7-1.18,8.75-5,9.22-8.17,1.29-8.62.44-17.56.44-26.52C743.15,465.06,698.24,465.29,652.26,449Zm136.8-54.07c-45.93,16.14-91,16.39-136.8.11v14.45c0,16.37,1.21,18.06,16.86,23.59.78.27,1.59.48,2.38.72,25.77,8,52.12,8.52,78.39,4.34,11.48-1.83,22.54-6.68,33.53-10.87,2.46-.94,5.15-4.73,5.39-7.42C789.52,411.8,789.06,403.64,789.06,394.93Zm.32-27.16c-4.34-2.82-7.62-5.92-11.52-7.35-38.54-14.11-77.2-14.17-115.71.11-3.87,1.44-7.11,4.56-11.21,7.26,5.89,7.19,13.06,9.9,20.37,12,29.77,8.76,59.87,8.7,90,2.17C771.07,379.88,781,377.12,789.38,367.77Z"/><path class="cls-2" d="M626.41,186c2.25,11,4.22,20.69,6.28,30.8l-19.9,4.3c-3.5-16.89-7.1-33.3-10.21-49.8-.83-4.44,1.5-8.81,5.95-9.89,18.1-4.4,36.32-8.27,55-12.44,1.47,7.19,2.74,13.43,4.09,20.05l-15.32,3.5,79.89,42.24c-1.27-2.52-2.78-5.5-4.58-9L755.11,191c3.06,6.14,6,12,9.1,18.26l-23.28,12.5a739,739,0,0,1,111.15,91.52L837.1,327C776.5,267.69,708.94,217,626.41,186Z"/><path class="cls-2" d="M1019.8,376.43,1000.26,382c-1.79-5.85-3.46-11.33-5.6-18.32-30.73,81.48-79.8,149.28-139.29,211.3l-13.06-15.74c59-62.18,109.75-131.82,138.23-217.32l-30.3,8.42c-1.83-6.44-3.6-12.68-5.6-19.69,16.58-4.61,32.47-9.22,48.49-13.37,5.27-1.36,9.71,1.13,11.32,6.44C1009.68,341,1014.56,358.34,1019.8,376.43Z"/><path class="cls-2" d="M819.14,680.1l19.62-5.51c4.61,16.38,9.18,32.12,13.4,48,1.49,5.61-1,10.2-6.47,11.88-17.22,5.3-34.57,10.17-52.56,15.4-1.92-6.7-3.67-12.79-5.59-19.52l18.33-5.65c-81.4-30.81-149.12-80-210.54-139.25a22,22,0,0,1,1.7-2.24c4-3.94,8-7.85,12.5-12.25C672.81,631.2,742.31,682,827.69,710.54c-1.68-5.89-3-10.59-4.36-15.31S820.68,685.66,819.14,680.1Z"/><path class="cls-2" d="M420.19,506.35l19.92-4.28c1.29,5.61,2.47,10.7,4,17.45,33.14-77.83,81.68-143.06,139.26-201.6l14.32,14.46c-59.25,60.83-109.86,128.55-140.63,211l30.66-6.33c1.47,6.63,2.85,12.84,4.4,19.77-12.62,2.76-24.91,5.45-37.2,8.12-3.66.8-7.29,1.74-11,2.3-5.65.86-10.42-1.23-11.77-6.82C427.93,542.72,424.24,524.83,420.19,506.35Z"/><path class="cls-2" d="M969.5,513.22l18.14-8c3,7.2,6.16,14.15,8.78,21.29,11.25,30.65,19.44,62,19.66,94.91.22,31.67-6.59,61.22-28.45,85.57-16.34,18.21-37.15,28.24-60.9,32.72-21.07,4-42.09,3.29-63.62-.06,1.07-6.69,2.07-13,2.84-17.8,12.58,0,24.37.18,36.16,0,21.89-.4,42.47-5.48,60.16-19,19.07-14.61,28.44-34.84,31.81-58.13,4.65-32.1-1.2-63.06-10.9-93.46C979.15,538.52,974.2,526.18,969.5,513.22Z"/><path class="cls-2" d="M783.71,199.71c-2.65-6-5.25-11.87-8.28-18.72,13.87-5.08,27.3-10.53,41.06-14.94,29.52-9.46,59.71-15,90.85-12.47,31.64,2.58,59.41,13.56,80.11,38.9,14.29,17.48,21.17,38,23.93,60.06,2.22,17.67,1.19,35.31-1.75,53.64l-19.67-3c.34-3.84.65-7.48,1-11.12,2.08-21.78,1.72-43.35-6.41-64.05-12.81-32.62-38.13-48.7-71.68-53.29-32.07-4.39-62.92,2-93.22,11.8C807.63,190.43,795.92,195.21,783.71,199.71Z"/><path class="cls-2" d="M553,725.26c.63,7,1.18,13.19,1.8,20.19-10.38,0-20.28.62-30.07-.13-24.33-1.86-46.72-9.19-65.89-25.06-20-16.58-30.94-38.19-35.74-63.32-4.23-22.17-2.87-44.27.5-66.71l19.18,3.45c-.67,12.94-1.93,25.38-1.81,37.8.24,23.47,5.8,45.48,21.46,63.77,17,19.91,39.77,28,65,29.91C535.77,725.8,544.1,725.26,553,725.26Z"/><path class="cls-2" d="M579.73,152.41c-1,5.17-2.26,9.45-2.38,13.75-.18,6.1-3.2,6.43-8.08,5.65-18.42-2.93-36.9-3.27-55.18.81-39,8.72-63.66,36.22-68.17,76.17-1.23,10.9-1.31,21.93-1.95,33.46l-18.63,1.66c-7.16-61.19,21.14-122.41,92.93-132.69,12.67-1.82,25.7-1.49,38.56-1.4C564.23,149.87,571.62,151.44,579.73,152.41Z"/><path class="cls-2" d="M653.15,697.39l33.51-16.82,9.77,17.91L661.6,716Z"/><path class="cls-2" d="M542.72,496.48,526.58,509l-22.84-31.45L520.5,466Z"/><path class="cls-2" d="M612.34,318.19l-14-14.75L627,277.32l13.34,15.52Z"/><path class="cls-2" d="M489.55,416l-17.9,9.76L454.18,391l18.54-8.49Z"/><path class="cls-2" d="M939.18,418.17l-16.82,11.45-22.11-30.53,16.17-12.45Z"/><path class="cls-2" d="M748.08,666.34l-11.57-16.79L767,627.29l12.5,16.14Z"/><path class="cls-2" d="M809.5,618.68l-13.33-15.46L823.65,578l14.59,14.3Z"/><path class="cls-2" d="M657.34,252.82,688.76,230l11.5,16.89-30.52,22.14Z"/><path class="cls-2" d="M865.9,327.39l26.09,29-15.46,13.21-24.69-27.2Z"/><path class="cls-2" d="M551.32,539.09l15.37-13.35,25,27.37L577.67,568Z"/><path class="cls-2" d="M458.93,347.62l-19.19,6.64c-3.14-10.77-6.18-21.2-9.42-32.29l19.82-4.78C453,327.22,455.87,337,458.93,347.62Z"/><path class="cls-2" d="M592.71,739.84,588.09,720l30.28-8.79c2.14,6.21,4.24,12.33,6.64,19.33Z"/><path class="cls-2" d="M960.08,493.61c-.82-1.32-1.41-2.16-1.89-3.06-3.88-7.3-7.74-14.61-12-22.63l17.63-10.16c4.82,9,9.46,17.74,14.33,26.89Z"/></svg>